<svg width="13" height="11" viewBox="0 0 13 11" fill="none" xmlns="http://www.w3.org/2000/svg">
<path d="M1.16923 3.89811C2.32318 3.89811 3.63697 3.82347 4.25769 2.7456C4.47527 2.36777 4.71347 1.32398 4.11196 1.10638C3.72086 0.964887 3.28885 1.00536 2.88034 1.00536C2.55335 1.00536 2.48833 1.40958 2.31154 1.62064C1.98504 2.01043 2.26577 2.52677 2.43846 2.90631C2.69715 3.47485 2.75133 4.2055 2.92735 4.80726C3.14033 5.53539 3.47177 6.40127 3.53376 7.15819C3.58124 7.73795 3.61204 8.09049 3.03077 8.34284C1.82945 8.86435 1 6.8911 1 6.04701" stroke="white" stroke-linecap="round"/>
<path d="M4.80768 4.72461C4.80768 5.16117 4.77194 5.61241 4.81238 6.047C4.84716 6.42062 5.06153 6.77884 5.06153 7.15819C5.06153 7.64337 5.06153 8.12856 5.06153 8.61374C5.06153 9.10488 5.3604 9.8 4.60369 9.8" stroke="white" stroke-linecap="round"/>
<path d="M4.63845 4.7246C5.13364 4.7246 5.90441 4.37433 6.16152 3.93484C6.25403 3.77671 6.54919 3.13023 6.66921 3.07161" stroke="white" stroke-linecap="round"/>
<path d="M4.89231 6.5429C6.11425 6.5429 7.89571 6.66818 8.36154 5.30315" stroke="white" stroke-linecap="round"/>
<path d="M7.85384 2.49305C8.3995 2.49305 8.79495 2.87497 9.08077 3.27823C9.35837 3.6699 9.68907 3.94293 10.035 4.24707C10.634 4.77365 11.5448 3.95837 11.6568 3.35629C11.7163 3.03687 11.6615 2.65198 11.6615 2.32775C11.6615 2.0565 11.1228 1.82162 10.8812 1.73084C10.7288 1.6736 10.1213 1.28729 9.96923 1.54717C9.85441 1.74343 9.8 2.23031 9.8 2.45173C9.8 3.0681 9.71538 3.74655 9.71538 4.38941C9.71538 5.42199 9.50938 6.95697 10.2889 7.71837C10.5744 7.99729 11.2733 8.78376 11.7085 8.23722C11.9241 7.96652 12 7.88918 12 7.5347C12 7.37375 11.8606 6.84676 11.7461 6.79085" stroke="white" stroke-linecap="round"/>
</svg>
